<svg width="14" height="15" viewBox="0 0 14 15" fill="none" xmlns="http://www.w3.org/2000/svg">
<path d="M7.00008 13.8751C6.28146 13.8751 6.27537 13.3523 5.65627 12.9062C4.5793 12.1304 2.92387 11.2173 1.60579 11.0386C1.36952 11.0124 1.15131 10.8997 0.993274 10.7221C0.835236 10.5445 0.748576 10.3147 0.750018 10.077V2.33655C0.750009 2.19767 0.780087 2.06043 0.838183 1.93427C0.896279 1.80812 0.981015 1.69605 1.08656 1.60578C1.19024 1.51714 1.3116 1.45158 1.44257 1.41345C1.57354 1.37532 1.71112 1.36549 1.84618 1.38462C3.8311 1.71405 5.64691 2.70326 7.00008 4.19234V13.8751Z" fill="" stroke="#6EEB83" stroke-width="1.5" stroke-linecap="round" stroke-linejoin="round"/>
<path d="M6.99999 13.8751C7.7186 13.8751 7.72469 13.3523 8.34379 12.9062C9.42076 12.1304 11.0762 11.2173 12.3943 11.0386C12.6305 11.0124 12.8487 10.8997 13.0068 10.7221C13.1648 10.5445 13.2515 10.3147 13.25 10.077V2.33655C13.2501 2.19767 13.22 2.06043 13.1619 1.93427C13.1038 1.80812 13.019 1.69605 12.9135 1.60578C12.8098 1.51714 12.6885 1.45158 12.5575 1.41345C12.4265 1.37532 12.2889 1.36549 12.1539 1.38462C10.169 1.71405 8.35315 2.70326 6.99999 4.19234V13.8751Z" fill="" stroke="#6EEB83" stroke-width="1.5" stroke-linecap="round" stroke-linejoin="round"/>
</svg>
