<svg width="14" height="15" viewBox="0 0 14 15" fill="none" xmlns="http://www.w3.org/2000/svg">
<path d="M0.75 8.72009L6.24259 2.34869C6.64151 1.88594 7.35849 1.88594 7.75741 2.34869L13.25 8.72009" stroke="#6EEB83" stroke-width="1.5" stroke-linecap="round" stroke-linejoin="round"/>
<path d="M2.67303 6.49454L6.24114 2.33754C6.6402 1.87262 7.35971 1.87262 7.75876 2.33754L11.3269 6.49454L11.5307 7.94849C11.7143 9.25868 11.7053 10.5887 11.504 11.8963C11.4021 12.5579 10.8327 13.0464 10.1632 13.0464H3.83667C3.16719 13.0464 2.59782 12.5579 2.49592 11.8963C2.29457 10.5887 2.28557 9.25868 2.46922 7.94849L2.67303 6.49454Z" fill=""/>
<path d="M2.67303 6.49454L6.24114 2.33754C6.6402 1.87262 7.35971 1.87262 7.75876 2.33754L11.3269 6.49454L11.5307 7.94849C11.7143 9.25868 11.7053 10.5887 11.504 11.8963C11.4021 12.5579 10.8327 13.0464 10.1632 13.0464H3.83667C3.16719 13.0464 2.59782 12.5579 2.49592 11.8963C2.29457 10.5887 2.28557 9.25868 2.46922 7.94849L2.67303 6.49454Z" stroke="#6EEB83" stroke-width="1.5" stroke-linejoin="round"/>
<path d="M7.00001 8.33887C7.921 8.33887 8.66762 9.08548 8.66762 10.0065V13.0464H5.3324V10.0065C5.3324 9.08548 6.07901 8.33887 7.00001 8.33887Z" fill="" stroke="#6EEB83" stroke-width="1.5" stroke-linecap="round" stroke-linejoin="round"/>
</svg>
